<?xml version="1.0" standalone="no"?>
<!DOCTYPE svg PUBLIC "-//W3C//DTD SVG 20010904//EN"
 "http://www.w3.org/TR/2001/REC-SVG-20010904/DTD/svg10.dtd">
<svg version="1.0" xmlns="http://www.w3.org/2000/svg"
 width="16.000000pt" height="16.000000pt" viewBox="0 0 16.000000 16.000000"
 preserveAspectRatio="xMidYMid meet">
<metadata>
Created by potrace 1.11, written by Peter Selinger 2001-2013
</metadata>
<g transform="translate(0.000000,16.000000) scale(0.004457,-0.004457)"
fill="#000000" stroke="none">
<path d="M3137 3250 c-20 -6 -54 -18 -75 -29 -33 -17 -43 -17 -96 -7 -127 26
-270 -16 -374 -109 l-50 -45 -79 39 c-98 49 -204 87 -311 112 -129 30 -175 34
-352 33 -178 -1 -288 -18 -445 -70 -414 -136 -792 -485 -964 -893 -17 -40 -31
-79 -31 -86 0 -7 -17 -30 -38 -51 -59 -61 -96 -112 -145 -204 -44 -82 -110
-241 -121 -291 -3 -13 -10 -44 -17 -69 -37 -148 -50 -494 -22 -609 7 -31 15
-65 17 -77 2 -11 16 -52 31 -90 126 -319 441 -481 757 -389 57 17 172 73 198
97 26 25 31 23 20 -8 -14 -35 -14 -35 22 -19 30 12 38 11 97 -16 279 -127 580
-158 920 -94 92 18 294 95 384 147 26 15 50 28 52 28 3 0 35 21 73 47 308 212
513 472 626 793 30 86 37 97 69 112 41 20 56 38 32 38 -9 0 -25 4 -35 10 -15
8 -17 15 -9 47 5 21 12 83 15 138 4 55 12 107 19 115 27 33 89 224 101 310 2
14 8 48 12 77 16 97 13 194 -7 253 l-20 55 64 63 c41 40 76 87 97 129 29 59
32 75 33 157 0 79 -4 99 -28 150 -34 74 -111 149 -185 182 -64 29 -172 39
-235 24z"/>
</g>
</svg>
